<svg xmlns="http://www.w3.org/2000/svg" viewBox="0 0 2.2 2.2"><style>path { stroke: #ff0000; stroke-width: 0.0019531249999999996; fill: none; stroke-linecap: round; }</style><path d="M2.095184726672197 1.1980171403295607 L2.095184726672197 1.1980171403295607 ZL2.095184726672197 1.0019828596704394 ZL2.056940335732209 0.8097153227455378 ZL1.981921264348355 0.6286032631740024 ZL1.873010453362737 0.4656067158363546 ZL1.7343932841636456 0.3269895466372632 ZL1.571396736825998 0.21807873565164515 ZL1.3902846772544626 0.14305966426779126 ZL1.198017140329561 0.10481527332780327 ZL1.0019828596704397 0.10481527332780316 ZL0.8097153227455379 0.14305966426779115 ZL0.6286032631740024 0.21807873565164504 ZL0.4656067158363544 0.3269895466372633 ZL0.3269895466372629 0.46560671583635493 ZL0.2180787356516447 0.6286032631740031 ZL0.14305966426779093 0.8097153227455386 ZL0.10481527332780305 1.0019828596704405 ZL0.10481527332780338 1.198017140329562 ZL0.1430596642677917 1.390284677254464 ZL0.21807873565164593 1.5713967368259993 ZL0.3269895466372643 1.7343932841636471 ZL0.46560671583635627 1.8730104533627383 ZL0.6286032631740046 1.9819212643483564 ZL0.8097153227455403 2.0569403357322096 ZL1.0019828596704423 2.0951847266721972 ZL1.1980171403295636 2.095184726672197 ZL1.3902846772544657 2.0569403357322082 ZL1.5713967368260007 1.9819212643483535 ZL1.7343932841636485 1.8730104533627348 ZL1.8730104533627396 1.7343932841636427 ZL1.981921264348357 1.571396736825994 ZL2.05694033573221 1.3902846772544584 ZM2.095184726672197 1.0019828596704394 L2.095184726672197 1.0019828596704394 ZL2.056940335732209 0.8097153227455378 ZL1.981921264348355 0.6286032631740024 ZL1.873010453362737 0.4656067158363546 ZL1.7343932841636456 0.3269895466372632 ZL1.571396736825998 0.21807873565164515 ZL1.3902846772544626 0.14305966426779126 ZL1.198017140329561 0.10481527332780327 ZL1.0019828596704397 0.10481527332780316 ZL0.8097153227455379 0.14305966426779115 ZL0.6286032631740024 0.21807873565164504 ZL0.4656067158363544 0.3269895466372633 ZL0.3269895466372629 0.46560671583635493 ZL0.2180787356516447 0.6286032631740031 ZL0.14305966426779093 0.8097153227455386 ZL0.10481527332780305 1.0019828596704405 ZL0.10481527332780338 1.198017140329562 ZL0.1430596642677917 1.390284677254464 ZL0.21807873565164593 1.5713967368259993 ZL0.3269895466372643 1.7343932841636471 ZL0.46560671583635627 1.8730104533627383 ZL0.6286032631740046 1.9819212643483564 ZL0.8097153227455403 2.0569403357322096 ZL1.0019828596704423 2.0951847266721972 ZL1.1980171403295636 2.095184726672197 ZL1.3902846772544657 2.0569403357322082 ZL1.5713967368260007 1.9819212643483535 ZL1.7343932841636485 1.8730104533627348 ZL1.8730104533627396 1.7343932841636427 ZL1.981921264348357 1.571396736825994 ZL2.05694033573221 1.3902846772544584 ZM2.056940335732209 0.8097153227455378 L2.056940335732209 0.8097153227455378 ZL1.981921264348355 0.6286032631740024 ZL1.873010453362737 0.4656067158363546 ZL1.7343932841636456 0.3269895466372632 ZL1.571396736825998 0.21807873565164515 ZL1.3902846772544626 0.14305966426779126 ZL1.198017140329561 0.10481527332780327 ZL1.0019828596704397 0.10481527332780316 ZL0.8097153227455379 0.14305966426779115 ZL0.6286032631740024 0.21807873565164504 ZL0.4656067158363544 0.3269895466372633 ZL0.3269895466372629 0.46560671583635493 ZL0.2180787356516447 0.6286032631740031 ZL0.14305966426779093 0.8097153227455386 ZL0.10481527332780305 1.0019828596704405 ZL0.10481527332780338 1.198017140329562 ZL0.1430596642677917 1.390284677254464 ZL0.21807873565164593 1.5713967368259993 ZL0.3269895466372643 1.7343932841636471 ZL0.46560671583635627 1.8730104533627383 ZL0.6286032631740046 1.9819212643483564 ZL0.8097153227455403 2.0569403357322096 ZL1.0019828596704423 2.0951847266721972 ZL1.1980171403295636 2.095184726672197 ZL1.3902846772544657 2.0569403357322082 ZL1.5713967368260007 1.9819212643483535 ZL1.7343932841636485 1.8730104533627348 ZL1.8730104533627396 1.7343932841636427 ZL1.981921264348357 1.571396736825994 ZL2.05694033573221 1.3902846772544584 ZM1.981921264348355 0.6286032631740024 L1.981921264348355 0.6286032631740024 ZL1.873010453362737 0.4656067158363546 ZL1.7343932841636456 0.3269895466372632 ZL1.571396736825998 0.21807873565164515 ZL1.3902846772544626 0.14305966426779126 ZL1.198017140329561 0.10481527332780327 ZL1.0019828596704397 0.10481527332780316 ZL0.8097153227455379 0.14305966426779115 ZL0.6286032631740024 0.21807873565164504 ZL0.4656067158363544 0.3269895466372633 ZL0.3269895466372629 0.46560671583635493 ZL0.2180787356516447 0.6286032631740031 ZL0.14305966426779093 0.8097153227455386 ZL0.10481527332780305 1.0019828596704405 ZL0.10481527332780338 1.198017140329562 ZL0.1430596642677917 1.390284677254464 ZL0.21807873565164593 1.5713967368259993 ZL0.3269895466372643 1.7343932841636471 ZL0.46560671583635627 1.8730104533627383 ZL0.6286032631740046 1.9819212643483564 ZL0.8097153227455403 2.0569403357322096 ZL1.0019828596704423 2.0951847266721972 ZL1.1980171403295636 2.095184726672197 ZL1.3902846772544657 2.0569403357322082 ZL1.5713967368260007 1.9819212643483535 ZL1.7343932841636485 1.8730104533627348 ZL1.8730104533627396 1.7343932841636427 ZL1.981921264348357 1.571396736825994 ZL2.05694033573221 1.3902846772544584 ZM1.873010453362737 0.4656067158363546 L1.873010453362737 0.4656067158363546 ZL1.7343932841636456 0.3269895466372632 ZL1.571396736825998 0.21807873565164515 ZL1.3902846772544626 0.14305966426779126 ZL1.198017140329561 0.10481527332780327 ZL1.0019828596704397 0.10481527332780316 ZL0.8097153227455379 0.14305966426779115 ZL0.6286032631740024 0.21807873565164504 ZL0.4656067158363544 0.3269895466372633 ZL0.3269895466372629 0.46560671583635493 ZL0.2180787356516447 0.6286032631740031 ZL0.14305966426779093 0.8097153227455386 ZL0.10481527332780305 1.0019828596704405 ZL0.10481527332780338 1.198017140329562 ZL0.1430596642677917 1.390284677254464 ZL0.21807873565164593 1.5713967368259993 ZL0.3269895466372643 1.7343932841636471 ZL0.46560671583635627 1.8730104533627383 ZL0.6286032631740046 1.9819212643483564 ZL0.8097153227455403 2.0569403357322096 ZL1.0019828596704423 2.0951847266721972 ZL1.1980171403295636 2.095184726672197 ZL1.3902846772544657 2.0569403357322082 ZL1.5713967368260007 1.9819212643483535 ZL1.7343932841636485 1.8730104533627348 ZL1.8730104533627396 1.7343932841636427 ZL1.981921264348357 1.571396736825994 ZL2.05694033573221 1.3902846772544584 ZM1.7343932841636456 0.3269895466372632 L1.7343932841636456 0.3269895466372632 ZL1.571396736825998 0.21807873565164515 ZL1.3902846772544626 0.14305966426779126 ZL1.198017140329561 0.10481527332780327 ZL1.0019828596704397 0.10481527332780316 ZL0.8097153227455379 0.14305966426779115 ZL0.6286032631740024 0.21807873565164504 ZL0.4656067158363544 0.3269895466372633 ZL0.3269895466372629 0.46560671583635493 ZL0.2180787356516447 0.6286032631740031 ZL0.14305966426779093 0.8097153227455386 ZL0.10481527332780305 1.0019828596704405 ZL0.10481527332780338 1.198017140329562 ZL0.1430596642677917 1.390284677254464 ZL0.21807873565164593 1.5713967368259993 ZL0.3269895466372643 1.7343932841636471 ZL0.46560671583635627 1.8730104533627383 ZL0.6286032631740046 1.9819212643483564 ZL0.8097153227455403 2.0569403357322096 ZL1.0019828596704423 2.0951847266721972 ZL1.1980171403295636 2.095184726672197 ZL1.3902846772544657 2.0569403357322082 ZL1.5713967368260007 1.9819212643483535 ZL1.7343932841636485 1.8730104533627348 ZL1.8730104533627396 1.7343932841636427 ZL1.981921264348357 1.571396736825994 ZL2.05694033573221 1.3902846772544584 ZM1.571396736825998 0.21807873565164515 L1.571396736825998 0.21807873565164515 ZL1.3902846772544626 0.14305966426779126 ZL1.198017140329561 0.10481527332780327 ZL1.0019828596704397 0.10481527332780316 ZL0.8097153227455379 0.14305966426779115 ZL0.6286032631740024 0.21807873565164504 ZL0.4656067158363544 0.3269895466372633 ZL0.3269895466372629 0.46560671583635493 ZL0.2180787356516447 0.6286032631740031 ZL0.14305966426779093 0.8097153227455386 ZL0.10481527332780305 1.0019828596704405 ZL0.10481527332780338 1.198017140329562 ZL0.1430596642677917 1.390284677254464 ZL0.21807873565164593 1.5713967368259993 ZL0.3269895466372643 1.7343932841636471 ZL0.46560671583635627 1.8730104533627383 ZL0.6286032631740046 1.9819212643483564 ZL0.8097153227455403 2.0569403357322096 ZL1.0019828596704423 2.0951847266721972 ZL1.1980171403295636 2.095184726672197 ZL1.3902846772544657 2.0569403357322082 ZL1.5713967368260007 1.9819212643483535 ZL1.7343932841636485 1.8730104533627348 ZL1.8730104533627396 1.7343932841636427 ZL1.981921264348357 1.571396736825994 ZL2.05694033573221 1.3902846772544584 ZM1.3902846772544626 0.14305966426779126 L1.3902846772544626 0.14305966426779126 ZL1.198017140329561 0.10481527332780327 ZL1.0019828596704397 0.10481527332780316 ZL0.8097153227455379 0.14305966426779115 ZL0.6286032631740024 0.21807873565164504 ZL0.4656067158363544 0.3269895466372633 ZL0.3269895466372629 0.46560671583635493 ZL0.2180787356516447 0.6286032631740031 ZL0.14305966426779093 0.8097153227455386 ZL0.10481527332780305 1.0019828596704405 ZL0.10481527332780338 1.198017140329562 ZL0.1430596642677917 1.390284677254464 ZL0.21807873565164593 1.5713967368259993 ZL0.3269895466372643 1.7343932841636471 ZL0.46560671583635627 1.8730104533627383 ZL0.6286032631740046 1.9819212643483564 ZL0.8097153227455403 2.0569403357322096 ZL1.0019828596704423 2.0951847266721972 ZL1.1980171403295636 2.095184726672197 ZL1.3902846772544657 2.0569403357322082 ZL1.5713967368260007 1.9819212643483535 ZL1.7343932841636485 1.8730104533627348 ZL1.8730104533627396 1.7343932841636427 ZL1.981921264348357 1.571396736825994 ZL2.05694033573221 1.3902846772544584 ZM1.198017140329561 0.10481527332780327 L1.198017140329561 0.10481527332780327 ZL1.0019828596704397 0.10481527332780316 ZL0.8097153227455379 0.14305966426779115 ZL0.6286032631740024 0.21807873565164504 ZL0.4656067158363544 0.3269895466372633 ZL0.3269895466372629 0.46560671583635493 ZL0.2180787356516447 0.6286032631740031 ZL0.14305966426779093 0.8097153227455386 ZL0.10481527332780305 1.0019828596704405 ZL0.10481527332780338 1.198017140329562 ZL0.1430596642677917 1.390284677254464 ZL0.21807873565164593 1.5713967368259993 ZL0.3269895466372643 1.7343932841636471 ZL0.46560671583635627 1.8730104533627383 ZL0.6286032631740046 1.9819212643483564 ZL0.8097153227455403 2.0569403357322096 ZL1.0019828596704423 2.0951847266721972 ZL1.1980171403295636 2.095184726672197 ZL1.3902846772544657 2.0569403357322082 ZL1.5713967368260007 1.9819212643483535 ZL1.7343932841636485 1.8730104533627348 ZL1.8730104533627396 1.7343932841636427 ZL1.981921264348357 1.571396736825994 ZL2.05694033573221 1.3902846772544584 ZM1.0019828596704397 0.10481527332780316 L1.0019828596704397 0.10481527332780316 ZL0.8097153227455379 0.14305966426779115 ZL0.6286032631740024 0.21807873565164504 ZL0.4656067158363544 0.3269895466372633 ZL0.3269895466372629 0.46560671583635493 ZL0.2180787356516447 0.6286032631740031 ZL0.14305966426779093 0.8097153227455386 ZL0.10481527332780305 1.0019828596704405 ZL0.10481527332780338 1.198017140329562 ZL0.1430596642677917 1.390284677254464 ZL0.21807873565164593 1.5713967368259993 ZL0.3269895466372643 1.7343932841636471 ZL0.46560671583635627 1.8730104533627383 ZL0.6286032631740046 1.9819212643483564 ZL0.8097153227455403 2.0569403357322096 ZL1.0019828596704423 2.0951847266721972 ZL1.1980171403295636 2.095184726672197 ZL1.3902846772544657 2.0569403357322082 ZL1.5713967368260007 1.9819212643483535 ZL1.7343932841636485 1.8730104533627348 ZL1.8730104533627396 1.7343932841636427 ZL1.981921264348357 1.571396736825994 ZL2.05694033573221 1.3902846772544584 ZM0.8097153227455379 0.14305966426779115 L0.8097153227455379 0.14305966426779115 ZL0.6286032631740024 0.21807873565164504 ZL0.4656067158363544 0.3269895466372633 ZL0.3269895466372629 0.46560671583635493 ZL0.2180787356516447 0.6286032631740031 ZL0.14305966426779093 0.8097153227455386 ZL0.10481527332780305 1.0019828596704405 ZL0.10481527332780338 1.198017140329562 ZL0.1430596642677917 1.390284677254464 ZL0.21807873565164593 1.5713967368259993 ZL0.3269895466372643 1.7343932841636471 ZL0.46560671583635627 1.8730104533627383 ZL0.6286032631740046 1.9819212643483564 ZL0.8097153227455403 2.0569403357322096 ZL1.0019828596704423 2.0951847266721972 ZL1.1980171403295636 2.095184726672197 ZL1.3902846772544657 2.0569403357322082 ZL1.5713967368260007 1.9819212643483535 ZL1.7343932841636485 1.8730104533627348 ZL1.8730104533627396 1.7343932841636427 ZL1.981921264348357 1.571396736825994 ZL2.05694033573221 1.3902846772544584 ZM0.6286032631740024 0.21807873565164504 L0.6286032631740024 0.21807873565164504 ZL0.4656067158363544 0.3269895466372633 ZL0.3269895466372629 0.46560671583635493 ZL0.2180787356516447 0.6286032631740031 ZL0.14305966426779093 0.8097153227455386 ZL0.10481527332780305 1.0019828596704405 ZL0.10481527332780338 1.198017140329562 ZL0.1430596642677917 1.390284677254464 ZL0.21807873565164593 1.5713967368259993 ZL0.3269895466372643 1.7343932841636471 ZL0.46560671583635627 1.8730104533627383 ZL0.6286032631740046 1.9819212643483564 ZL0.8097153227455403 2.0569403357322096 ZL1.0019828596704423 2.0951847266721972 ZL1.1980171403295636 2.095184726672197 ZL1.3902846772544657 2.0569403357322082 ZL1.5713967368260007 1.9819212643483535 ZL1.7343932841636485 1.8730104533627348 ZL1.8730104533627396 1.7343932841636427 ZL1.981921264348357 1.571396736825994 ZL2.05694033573221 1.3902846772544584 ZM0.4656067158363544 0.3269895466372633 L0.4656067158363544 0.3269895466372633 ZL0.3269895466372629 0.46560671583635493 ZL0.2180787356516447 0.6286032631740031 ZL0.14305966426779093 0.8097153227455386 ZL0.10481527332780305 1.0019828596704405 ZL0.10481527332780338 1.198017140329562 ZL0.1430596642677917 1.390284677254464 ZL0.21807873565164593 1.5713967368259993 ZL0.3269895466372643 1.7343932841636471 ZL0.46560671583635627 1.8730104533627383 ZL0.6286032631740046 1.9819212643483564 ZL0.8097153227455403 2.0569403357322096 ZL1.0019828596704423 2.0951847266721972 ZL1.1980171403295636 2.095184726672197 ZL1.3902846772544657 2.0569403357322082 ZL1.5713967368260007 1.9819212643483535 ZL1.7343932841636485 1.8730104533627348 ZL1.8730104533627396 1.7343932841636427 ZL1.981921264348357 1.571396736825994 ZL2.05694033573221 1.3902846772544584 ZM0.3269895466372629 0.46560671583635493 L0.3269895466372629 0.46560671583635493 ZL0.2180787356516447 0.6286032631740031 ZL0.14305966426779093 0.8097153227455386 ZL0.10481527332780305 1.0019828596704405 ZL0.10481527332780338 1.198017140329562 ZL0.1430596642677917 1.390284677254464 ZL0.21807873565164593 1.5713967368259993 ZL0.3269895466372643 1.7343932841636471 ZL0.46560671583635627 1.8730104533627383 ZL0.6286032631740046 1.9819212643483564 ZL0.8097153227455403 2.0569403357322096 ZL1.0019828596704423 2.0951847266721972 ZL1.1980171403295636 2.095184726672197 ZL1.3902846772544657 2.0569403357322082 ZL1.5713967368260007 1.9819212643483535 ZL1.7343932841636485 1.8730104533627348 ZL1.8730104533627396 1.7343932841636427 ZL1.981921264348357 1.571396736825994 ZL2.05694033573221 1.3902846772544584 ZM0.2180787356516447 0.6286032631740031 L0.2180787356516447 0.6286032631740031 ZL0.14305966426779093 0.8097153227455386 ZL0.10481527332780305 1.0019828596704405 ZL0.10481527332780338 1.198017140329562 ZL0.1430596642677917 1.390284677254464 ZL0.21807873565164593 1.5713967368259993 ZL0.3269895466372643 1.7343932841636471 ZL0.46560671583635627 1.8730104533627383 ZL0.6286032631740046 1.9819212643483564 ZL0.8097153227455403 2.0569403357322096 ZL1.0019828596704423 2.0951847266721972 ZL1.1980171403295636 2.095184726672197 ZL1.3902846772544657 2.0569403357322082 ZL1.5713967368260007 1.9819212643483535 ZL1.7343932841636485 1.8730104533627348 ZL1.8730104533627396 1.7343932841636427 ZL1.981921264348357 1.571396736825994 ZL2.05694033573221 1.3902846772544584 ZM0.14305966426779093 0.8097153227455386 L0.14305966426779093 0.8097153227455386 ZL0.10481527332780305 1.0019828596704405 ZL0.10481527332780338 1.198017140329562 ZL0.1430596642677917 1.390284677254464 ZL0.21807873565164593 1.5713967368259993 ZL0.3269895466372643 1.7343932841636471 ZL0.46560671583635627 1.8730104533627383 ZL0.6286032631740046 1.9819212643483564 ZL0.8097153227455403 2.0569403357322096 ZL1.0019828596704423 2.0951847266721972 ZL1.1980171403295636 2.095184726672197 ZL1.3902846772544657 2.0569403357322082 ZL1.5713967368260007 1.9819212643483535 ZL1.7343932841636485 1.8730104533627348 ZL1.8730104533627396 1.7343932841636427 ZL1.981921264348357 1.571396736825994 ZL2.05694033573221 1.3902846772544584 ZM0.10481527332780305 1.0019828596704405 L0.10481527332780305 1.0019828596704405 ZL0.10481527332780338 1.198017140329562 ZL0.1430596642677917 1.390284677254464 ZL0.21807873565164593 1.5713967368259993 ZL0.3269895466372643 1.7343932841636471 ZL0.46560671583635627 1.8730104533627383 ZL0.6286032631740046 1.9819212643483564 ZL0.8097153227455403 2.0569403357322096 ZL1.0019828596704423 2.0951847266721972 ZL1.1980171403295636 2.095184726672197 ZL1.3902846772544657 2.0569403357322082 ZL1.5713967368260007 1.9819212643483535 ZL1.7343932841636485 1.8730104533627348 ZL1.8730104533627396 1.7343932841636427 ZL1.981921264348357 1.571396736825994 ZL2.05694033573221 1.3902846772544584 ZM0.10481527332780338 1.198017140329562 L0.10481527332780338 1.198017140329562 ZL0.1430596642677917 1.390284677254464 ZL0.21807873565164593 1.5713967368259993 ZL0.3269895466372643 1.7343932841636471 ZL0.46560671583635627 1.8730104533627383 ZL0.6286032631740046 1.9819212643483564 ZL0.8097153227455403 2.0569403357322096 ZL1.0019828596704423 2.0951847266721972 ZL1.1980171403295636 2.095184726672197 ZL1.3902846772544657 2.0569403357322082 ZL1.5713967368260007 1.9819212643483535 ZL1.7343932841636485 1.8730104533627348 ZL1.8730104533627396 1.7343932841636427 ZL1.981921264348357 1.571396736825994 ZL2.05694033573221 1.3902846772544584 ZM0.1430596642677917 1.390284677254464 L0.1430596642677917 1.390284677254464 ZL0.21807873565164593 1.5713967368259993 ZL0.3269895466372643 1.7343932841636471 ZL0.46560671583635627 1.8730104533627383 ZL0.6286032631740046 1.9819212643483564 ZL0.8097153227455403 2.0569403357322096 ZL1.0019828596704423 2.0951847266721972 ZL1.1980171403295636 2.095184726672197 ZL1.3902846772544657 2.0569403357322082 ZL1.5713967368260007 1.9819212643483535 ZL1.7343932841636485 1.8730104533627348 ZL1.8730104533627396 1.7343932841636427 ZL1.981921264348357 1.571396736825994 ZL2.05694033573221 1.3902846772544584 ZM0.21807873565164593 1.5713967368259993 L0.21807873565164593 1.5713967368259993 ZL0.3269895466372643 1.7343932841636471 ZL0.46560671583635627 1.8730104533627383 ZL0.6286032631740046 1.9819212643483564 ZL0.8097153227455403 2.0569403357322096 ZL1.0019828596704423 2.0951847266721972 ZL1.1980171403295636 2.095184726672197 ZL1.3902846772544657 2.0569403357322082 ZL1.5713967368260007 1.9819212643483535 ZL1.7343932841636485 1.8730104533627348 ZL1.8730104533627396 1.7343932841636427 ZL1.981921264348357 1.571396736825994 ZL2.05694033573221 1.3902846772544584 ZM0.3269895466372643 1.7343932841636471 L0.3269895466372643 1.7343932841636471 ZL0.46560671583635627 1.8730104533627383 ZL0.6286032631740046 1.9819212643483564 ZL0.8097153227455403 2.0569403357322096 ZL1.0019828596704423 2.0951847266721972 ZL1.1980171403295636 2.095184726672197 ZL1.3902846772544657 2.0569403357322082 ZL1.5713967368260007 1.9819212643483535 ZL1.7343932841636485 1.8730104533627348 ZL1.8730104533627396 1.7343932841636427 ZL1.981921264348357 1.571396736825994 ZL2.05694033573221 1.3902846772544584 ZM0.46560671583635627 1.8730104533627383 L0.46560671583635627 1.8730104533627383 ZL0.6286032631740046 1.9819212643483564 ZL0.8097153227455403 2.0569403357322096 ZL1.0019828596704423 2.0951847266721972 ZL1.1980171403295636 2.095184726672197 ZL1.3902846772544657 2.0569403357322082 ZL1.5713967368260007 1.9819212643483535 ZL1.7343932841636485 1.8730104533627348 ZL1.8730104533627396 1.7343932841636427 ZL1.981921264348357 1.571396736825994 ZL2.05694033573221 1.3902846772544584 ZM0.6286032631740046 1.9819212643483564 L0.6286032631740046 1.9819212643483564 ZL0.8097153227455403 2.0569403357322096 ZL1.0019828596704423 2.0951847266721972 ZL1.1980171403295636 2.095184726672197 ZL1.3902846772544657 2.0569403357322082 ZL1.5713967368260007 1.9819212643483535 ZL1.7343932841636485 1.8730104533627348 ZL1.8730104533627396 1.7343932841636427 ZL1.981921264348357 1.571396736825994 ZL2.05694033573221 1.3902846772544584 ZM0.8097153227455403 2.0569403357322096 L0.8097153227455403 2.0569403357322096 ZL1.0019828596704423 2.0951847266721972 ZL1.1980171403295636 2.095184726672197 ZL1.3902846772544657 2.0569403357322082 ZL1.5713967368260007 1.9819212643483535 ZL1.7343932841636485 1.8730104533627348 ZL1.8730104533627396 1.7343932841636427 ZL1.981921264348357 1.571396736825994 ZL2.05694033573221 1.3902846772544584 ZM1.0019828596704423 2.0951847266721972 L1.0019828596704423 2.0951847266721972 ZL1.1980171403295636 2.095184726672197 ZL1.3902846772544657 2.0569403357322082 ZL1.5713967368260007 1.9819212643483535 ZL1.7343932841636485 1.8730104533627348 ZL1.8730104533627396 1.7343932841636427 ZL1.981921264348357 1.571396736825994 ZL2.05694033573221 1.3902846772544584 ZM1.1980171403295636 2.095184726672197 L1.1980171403295636 2.095184726672197 ZL1.3902846772544657 2.0569403357322082 ZL1.5713967368260007 1.9819212643483535 ZL1.7343932841636485 1.8730104533627348 ZL1.8730104533627396 1.7343932841636427 ZL1.981921264348357 1.571396736825994 ZL2.05694033573221 1.3902846772544584 ZM1.3902846772544657 2.0569403357322082 L1.3902846772544657 2.0569403357322082 ZL1.5713967368260007 1.9819212643483535 ZL1.7343932841636485 1.8730104533627348 ZL1.8730104533627396 1.7343932841636427 ZL1.981921264348357 1.571396736825994 ZL2.05694033573221 1.3902846772544584 ZM1.5713967368260007 1.9819212643483535 L1.5713967368260007 1.9819212643483535 ZL1.7343932841636485 1.8730104533627348 ZL1.8730104533627396 1.7343932841636427 ZL1.981921264348357 1.571396736825994 ZL2.05694033573221 1.3902846772544584 ZM1.7343932841636485 1.8730104533627348 L1.7343932841636485 1.8730104533627348 ZL1.8730104533627396 1.7343932841636427 ZL1.981921264348357 1.571396736825994 ZL2.05694033573221 1.3902846772544584 ZM1.8730104533627396 1.7343932841636427 L1.8730104533627396 1.7343932841636427 ZL1.981921264348357 1.571396736825994 ZL2.05694033573221 1.3902846772544584 ZM1.981921264348357 1.571396736825994 L1.981921264348357 1.571396736825994 ZL2.05694033573221 1.3902846772544584 ZM2.05694033573221 1.3902846772544584 L2.05694033573221 1.3902846772544584 Z" /></svg>